<?xml version="1.0" ?><!DOCTYPE svg  PUBLIC '-//W3C//DTD SVG 1.1//EN'  'http://www.w3.org/Graphics/SVG/1.1/DTD/svg11.dtd'><svg height="512px" style="enable-background:new 0 0 512 512;" version="1.1" viewBox="0 0 512 512" width="512px" xml:space="preserve" xmlns="http://www.w3.org/2000/svg" xmlns:xlink="http://www.w3.org/1999/xlink"><g id="_x33_-xiaomi"><path d="M376,16H136C69.726,16,16,69.726,16,136v240c0,66.274,53.726,120,120,120h240c66.274,0,120-53.726,120-120V136   C496,69.726,442.274,16,376,16z M238,368h-42V221h42V368z M322,368h-42V210.791C280,193.459,265.604,179,248.258,179H154v189h-42   V137h136.258c40.48,0,73.742,33.345,73.742,73.791V368z M406,368h-42V137h42V368z"/></g><g id="Layer_1"/></svg>